# xmcd
#
# Track frame offsets:
#	150
#	14586
#	26311
#	35492
#	49546
#	64978
#	78392
#	88003
#	103111
#	112365
#	120933
#	148557
#
# Disc length: 3208 seconds
# Revision: 0
# Processed by: cddbd v1.5.2PL0 Copyright (c) Steve Scherf et al.
# Submitted via: dBpowerAMP V12.0
#
DISCID=9d0c860c
DTITLE=LED39 - Cypress Walls
DYEAR=2002
DGENRE=Bluegrass
TTITLE0=Cypress walls 
TTITLE1=Baby, you lost your hold
TTITLE2=Up around the bend
TTITLE3=The bluest man in town 
TTITLE4=Duncan and Brady 
TTITLE5=Lights on the hill 
TTITLE6=Lonesome as it gets
TTITLE7=I feel the blues moving in
TTITLE8=Flyin' south 
TTITLE9=I could change my mind
TTITLE10=We're steppin' out tonight
TTITLE11=DATA
EXTD=
EXTT0=
EXTT1=
EXTT2=
EXTT3=
EXTT4=
EXTT5=
EXTT6=
EXTT7=
EXTT8=
EXTT9=
EXTT10=
EXTT11=
PLAYORDER=
